<?xml version="1.0" encoding="UTF-8"?>
<svg version="1.1" xmlns="http://www.w3.org/2000/svg" width="172" height="172">
<path d="M0 0 C0.99 0 1.98 0 3 0 C15 21.05825243 15 21.05825243 15 31 C14.34 31 13.68 31 13 31 C13 31.66 13 32.32 13 33 C11.70766393 34.37310707 10.37562854 35.71034824 9 37 C9.66 37 10.32 37 11 37 C11 36.34 11 35.68 11 35 C12.828125 33.4921875 12.828125 33.4921875 15.25 31.875 C16.43335937 31.06675781 16.43335937 31.06675781 17.640625 30.2421875 C20 29 20 29 24 29 C25.03026944 35.69675136 25.10152799 42.2314676 25 49 C24.38125 48.835 23.7625 48.67 23.125 48.5 C21.03936614 47.92365356 21.03936614 47.92365356 19 48 C18.67128906 48.85980469 18.34257813 49.71960937 18.00390625 50.60546875 C14.34247368 59.70447597 9.8583033 67.12954244 4 75 C3.39285156 75.85464844 2.78570312 76.70929688 2.16015625 77.58984375 C-0.7663267 81.66116111 -0.7663267 81.66116111 -2 83 C-2.66 83 -3.32 83 -4 83 C-4.23203125 83.54269531 -4.4640625 84.08539063 -4.703125 84.64453125 C-6.3719509 87.67556143 -8.49022028 90.06820987 -10.75 92.6875 C-18.00242531 101.26908098 -23.12235847 109.4059907 -27 120 C-27.24878906 120.66515625 -27.49757812 121.3303125 -27.75390625 122.015625 C-30.94246941 132.27254145 -29.49163456 143.28163167 -25.97265625 153.1953125 C-25.070853 155.79569296 -24.4710595 158.29264753 -24 161 C-28.44824859 160.47903395 -30.87592224 158.87794815 -34.3125 156.0625 C-35.63701172 154.99708984 -35.63701172 154.99708984 -36.98828125 153.91015625 C-37.65214844 153.27980469 -38.31601562 152.64945313 -39 152 C-39 151.34 -39 150.68 -39 150 C-39.66 150 -40.32 150 -41 150 C-54.271058 137.04046918 -60.84511448 117.83393276 -61.1875 99.6875 C-60.95952319 79.87631521 -52.60881188 63.83527494 -40 49 C-39.36835937 48.25621094 -38.73671875 47.51242188 -38.0859375 46.74609375 C-34.52218136 42.68010943 -30.83778146 38.81725967 -26.96484375 35.046875 C-15.90151493 24.26511813 -7.11000246 13.8269897 0 0 Z " fill="#66696C" transform="translate(100,6)"/>
<path d="M0 0 C0.99 0 1.98 0 3 0 C15 21.05825243 15 21.05825243 15 31 C14.34 31 13.68 31 13 31 C13 31.66 13 32.32 13 33 C11.70766393 34.37310707 10.37562854 35.71034824 9 37 C9.66 37 10.32 37 11 37 C11 36.34 11 35.68 11 35 C12.828125 33.4921875 12.828125 33.4921875 15.25 31.875 C16.43335937 31.06675781 16.43335937 31.06675781 17.640625 30.2421875 C20 29 20 29 24 29 C25.03026944 35.69675136 25.10152799 42.2314676 25 49 C24.1028125 48.7525 24.1028125 48.7525 23.1875 48.5 C20.88655664 47.8885876 20.88655664 47.8885876 18 48 C18 46.68 18 45.36 18 44 C19.65 44.33 21.3 44.66 23 45 C23 40.38 23 35.76 23 31 C19.25642808 33.06278453 15.80251028 35.11357454 12.4375 37.75 C9.25446612 40.10486896 7.0023692 40.4880938 3 40 C4.37731398 36.72101392 5.76729229 35.28497296 8.6875 33.3125 C11.34856865 31.11431085 11.34856865 31.11431085 12.375 27.9296875 C11.94747498 22.81720085 10.10114994 18.41050539 7.83984375 13.84765625 C7 12 7 12 7 10 C5.68 9.67 4.36 9.34 3 9 C3.02320312 9.67804687 3.04640625 10.35609375 3.0703125 11.0546875 C3.3072856 23.27572866 0.45179117 32.06212967 -5 43 C-5.66 43 -6.32 43 -7 43 C-7.25910156 43.56847656 -7.51820312 44.13695312 -7.78515625 44.72265625 C-9.11675886 47.21887593 -10.65507854 49.24004485 -12.4375 51.4375 C-13.1490625 52.31792969 -13.860625 53.19835938 -14.59375 54.10546875 C-16.26090674 56.1109284 -17.93958895 58.0891487 -19.65625 60.05078125 C-36.17903707 78.9928199 -45.59202192 97.42838434 -44.30322266 123.03662109 C-43.41716838 131.69598249 -40.51126816 141.18428968 -35 148 C-34.896875 148.639375 -34.79375 149.27875 -34.6875 149.9375 C-33.55213659 153.34359023 -30.80526063 154.85128973 -28 157 C-28 155.02 -28 153.04 -28 151 C-24 157 -24 157 -24 161 C-28.44824859 160.47903395 -30.87592224 158.87794815 -34.3125 156.0625 C-35.63701172 154.99708984 -35.63701172 154.99708984 -36.98828125 153.91015625 C-37.65214844 153.27980469 -38.31601562 152.64945313 -39 152 C-39 151.34 -39 150.68 -39 150 C-39.66 150 -40.32 150 -41 150 C-54.271058 137.04046918 -60.84511448 117.83393276 -61.1875 99.6875 C-60.95952319 79.87631521 -52.60881188 63.83527494 -40 49 C-39.36835937 48.25621094 -38.73671875 47.51242188 -38.0859375 46.74609375 C-34.52218136 42.68010943 -30.83778146 38.81725967 -26.96484375 35.046875 C-15.90151493 24.26511813 -7.11000246 13.8269897 0 0 Z " fill="#3D4145" transform="translate(100,6)"/>
<path d="M0 0 C0.99 0 1.98 0 3 0 C6.60687397 19.67678569 6.05903695 41.38423196 -4.80859375 58.91796875 C-6.48232292 61.32939144 -8.21480285 63.67069994 -10 66 C-10.66 66.99 -11.32 67.98 -12 69 C-12.66 69 -13.32 69 -14 69 C-14 69.66 -14 70.32 -14 71 C-14.66 71 -15.32 71 -16 71 C-16 71.66 -16 72.32 -16 73 C-22.99686231 78.8888993 -32.73132246 85.89845938 -42 87 C-42.66 86.67 -43.32 86.34 -44 86 C-45.2021346 63.93415165 -37.06523635 49.58743544 -23 33 C-21.61585159 31.35411991 -20.23427287 29.706144 -18.85473633 28.05639648 C-17.56283518 26.51258742 -16.2659181 24.97297996 -14.96875 23.43359375 C-12.99891908 21.17688964 -12.99891908 21.17688964 -12 19 C-11.34 19 -10.68 19 -10 19 C-9.731875 18.27941406 -9.46375 17.55882813 -9.1875 16.81640625 C-7.9998639 13.99967722 -6.60600761 11.53521731 -5 8.9375 C-3.19462309 6.00827597 -1.49037371 3.1025568 0 0 Z " fill="#898B8D" transform="translate(119,63)"/>
<path d="M0 0 C1.90942383 0.36328125 1.90942383 0.36328125 4 1 C7.35947217 6.07090139 10.06884151 12.7430395 10.54296875 18.8515625 C9.35831222 23.53905237 4.88673007 26.46637667 1 29 C0.34 29 -0.32 29 -1 29 C-1 29.99 -1 30.98 -1 32 C1.31 32 3.62 32 6 32 C6.640625 33.77734375 6.640625 33.77734375 7 36 C2.85404205 44.78082604 -6.86442617 52.36638536 -14.125 58.625 C-26.19899322 69.05142184 -40.70371428 84.13115576 -42.17700195 101.03027344 C-42.80833548 120.09964983 -42.80833548 120.09964983 -36.30078125 137.71875 C-35.87152344 138.4715625 -35.44226563 139.224375 -35 140 C-35.33 140.99 -35.66 141.98 -36 143 C-47.04379419 130.90441589 -49.12778627 115.09040675 -48.44140625 99.2890625 C-47.18580257 81.3959234 -37.16721664 66.78123991 -25.54589844 53.76708984 C-22.56391342 50.3584342 -19.72699943 46.82991353 -16.875 43.3125 C-16.30620117 42.61640625 -15.73740234 41.9203125 -15.15136719 41.203125 C-14.62446289 40.55472656 -14.09755859 39.90632813 -13.5546875 39.23828125 C-13.08530762 38.66118408 -12.61592773 38.08408691 -12.13232422 37.48950195 C-10.91391932 35.98223444 -10.91391932 35.98223444 -10 34 C-9.34 34 -8.68 34 -8 34 C-7.7525 33.030625 -7.505 32.06125 -7.25 31.0625 C-6.4583745 28.20133928 -5.38611818 25.80457388 -4 23.1875 C-0.65617684 16.0506834 -0.63525751 7.74846988 0 0 Z " fill="#BFBFC0" transform="translate(103,15)"/>
<path d="M0 0 C0.99 0 1.98 0 3 0 C3 0.66 3 1.32 3 2 C2.01 2 1.02 2 0 2 C-0.1134375 2.72832031 -0.226875 3.45664063 -0.34375 4.20703125 C-3.0155489 15.57808013 -13.30150913 24.41753648 -21.328125 32.296875 C-23.71961192 34.73306261 -25.90840033 37.33046052 -28.12890625 39.921875 C-30.09588155 42.10649058 -32.18058571 44.10174215 -34.3125 46.125 C-48.14578743 59.91115528 -56.78001744 76.41250227 -58 96 C-58.10441406 97.32064453 -58.10441406 97.32064453 -58.2109375 98.66796875 C-58.94372075 115.94474306 -51.32360899 131.68276452 -41 145 C-39.09349353 146.86957657 -37.13647802 148.3744189 -35 150 C-33.33333333 151.66666667 -31.66666667 153.33333333 -30 155 C-29.34 155.33 -28.68 155.66 -28 156 C-28 154.35 -28 152.7 -28 151 C-24 157 -24 157 -24 161 C-28.44824859 160.47903395 -30.87592224 158.87794815 -34.3125 156.0625 C-35.63701172 154.99708984 -35.63701172 154.99708984 -36.98828125 153.91015625 C-37.65214844 153.27980469 -38.31601562 152.64945313 -39 152 C-39 151.34 -39 150.68 -39 150 C-39.66 150 -40.32 150 -41 150 C-54.271058 137.04046918 -60.84511448 117.83393276 -61.1875 99.6875 C-60.95952319 79.87631521 -52.60881188 63.83527494 -40 49 C-39.36835937 48.25621094 -38.73671875 47.51242188 -38.0859375 46.74609375 C-34.52218136 42.68010943 -30.83778146 38.81725967 -26.96484375 35.046875 C-15.90151493 24.26511813 -7.11000246 13.8269897 0 0 Z " fill="#080909" transform="translate(100,6)"/>
<path d="M0 0 C0.99 0 1.98 0 3 0 C2.67 1.32 2.34 2.64 2 4 C1.34 3.67 0.68 3.34 0 3 C-0.26683594 3.88171875 -0.53367188 4.7634375 -0.80859375 5.671875 C-3.87297194 14.23203964 -9.70327749 21.04016196 -15.81640625 27.6171875 C-19.12934058 31.23237523 -22.07905221 35.06516951 -25 39 C-25.59844727 39.79760742 -25.59844727 39.79760742 -26.20898438 40.61132812 C-33.48842216 50.34988838 -39.21579445 58.29634305 -39.82421875 70.8125 C-40 73 -40 73 -41 74 C-41.23287008 75.68183948 -41.41264166 77.3712416 -41.5625 79.0625 C-41.64628906 79.98160156 -41.73007813 80.90070313 -41.81640625 81.84765625 C-41.87699219 82.55792969 -41.93757813 83.26820313 -42 84 C-41.04738281 83.51789063 -40.09476562 83.03578125 -39.11328125 82.5390625 C-37.84640841 81.90093396 -36.57947829 81.26291914 -35.3125 80.625 C-34.37374023 80.14933594 -34.37374023 80.14933594 -33.41601562 79.6640625 C-30.70724239 78.30258485 -28.02511121 77.00968775 -25.1953125 75.91796875 C-22.07538708 74.6133736 -20.32108342 72.43430701 -18 70 C-17.030625 69.236875 -16.06125 68.47375 -15.0625 67.6875 C-11.34917249 64.67825797 -8.72371681 60.89240382 -6 57 C-5.67 57.66 -5.34 58.32 -5 59 C-6.11678083 60.6721852 -7.24366352 62.33762803 -8.375 64 C-9.00148437 64.928125 -9.62796875 65.85625 -10.2734375 66.8125 C-10.84320313 67.534375 -11.41296875 68.25625 -12 69 C-12.66 69 -13.32 69 -14 69 C-14 69.66 -14 70.32 -14 71 C-14.66 71 -15.32 71 -16 71 C-16 71.66 -16 72.32 -16 73 C-22.99686231 78.8888993 -32.73132246 85.89845938 -42 87 C-42.66 86.67 -43.32 86.34 -44 86 C-45.2021346 63.93415165 -37.06523635 49.58743544 -23 33 C-21.61585159 31.35411991 -20.23427287 29.706144 -18.85473633 28.05639648 C-17.56283518 26.51258742 -16.2659181 24.97297996 -14.96875 23.43359375 C-12.99891908 21.17688964 -12.99891908 21.17688964 -12 19 C-11.34 19 -10.68 19 -10 19 C-9.731875 18.27941406 -9.46375 17.55882813 -9.1875 16.81640625 C-7.9998639 13.99967722 -6.60600761 11.53521731 -5 8.9375 C-3.19462309 6.00827597 -1.49037371 3.1025568 0 0 Z " fill="#0E0E0F" transform="translate(119,63)"/>
<path d="M0 0 C1 3 1 3 -0.1171875 5.27734375 C-9.80260321 19.93460619 -9.80260321 19.93460619 -15 26 C-15.66 26 -16.32 26 -17 26 C-17.23203125 26.54269531 -17.4640625 27.08539063 -17.703125 27.64453125 C-19.3719509 30.67556143 -21.49022028 33.06820987 -23.75 35.6875 C-31.00242531 44.26908098 -36.12235847 52.4059907 -40 63 C-40.24878906 63.66515625 -40.49757813 64.3303125 -40.75390625 65.015625 C-43.5652127 74.05898839 -42.50649867 84.77269566 -41 94 C-41.66 94 -42.32 94 -43 94 C-46.47864072 83.34666278 -45.83284707 71.74964289 -43 61 C-42.34 61 -41.68 61 -41 61 C-40.67 59.783125 -40.34 58.56625 -40 57.3125 C-36.64799766 47.35047435 -30.40707963 39.03534983 -23.28515625 31.44921875 C-14.38753164 21.91279032 -6.59837462 11.2462863 0 0 Z " fill="#141415" transform="translate(113,63)"/>
<path d="M0 0 C3.25101534 2.70420848 4.81680045 6.24316469 6.5625 10 C6.8726001 10.66265869 7.1827002 11.32531738 7.50219727 12.00805664 C9.99067902 17.54001486 11.38369383 22.95013737 12 29 C11.34 29 10.68 29 10 29 C10 29.66 10 30.32 10 31 C8.70766393 32.37310707 7.37562854 33.71034824 6 35 C6.66 35 7.32 35 8 35 C8 34.34 8 33.68 8 33 C9.828125 31.4921875 9.828125 31.4921875 12.25 29.875 C13.03890625 29.33617188 13.8278125 28.79734375 14.640625 28.2421875 C17 27 17 27 21 27 C22.03026944 33.69675136 22.10152799 40.2314676 22 47 C21.401875 46.835 20.80375 46.67 20.1875 46.5 C17.88655664 45.8885876 17.88655664 45.8885876 15 46 C15 44.68 15 43.36 15 42 C16.65 42.33 18.3 42.66 20 43 C20 38.38 20 33.76 20 29 C16.25642808 31.06278453 12.80251028 33.11357454 9.4375 35.75 C6.25446612 38.10486896 4.0023692 38.4880938 0 38 C1.70647329 33.93738084 4.02232882 32.3903563 7.63671875 30.05078125 C9.60864863 27.08441108 9.12000871 24.89149716 8.59350586 21.44946289 C7.6047846 17.3689033 5.8486978 13.78256894 3.9375 10.0625 C0 2.19423077 0 2.19423077 0 0 Z " fill="#101011" transform="translate(103,8)"/>
<path d="M0 0 C0.99 0 1.98 0 3 0 C2.67 1.32 2.34 2.64 2 4 C1.34 3.67 0.68 3.34 0 3 C-0.26683594 3.88171875 -0.53367188 4.7634375 -0.80859375 5.671875 C-3.87297194 14.23203964 -9.70327749 21.04016196 -15.81640625 27.6171875 C-19.12934058 31.23237523 -22.07905221 35.06516951 -25 39 C-25.59844727 39.79760742 -25.59844727 39.79760742 -26.20898438 40.61132812 C-31.33438419 47.46817841 -35.90536377 53.96067326 -39 62 C-39.65356336 63.33980489 -40.31689559 64.67501299 -41 66 C-42.1973488 63.14585461 -42.0036944 62.01044908 -40.953125 59.0390625 C-36.31237515 49.73627495 -30.69835279 41.92645763 -24 34 C-23.48727539 33.3910791 -22.97455078 32.7821582 -22.44628906 32.15478516 C-20.45288511 29.79096417 -18.4592802 27.42784856 -16.44042969 25.08569336 C-13.95694675 22.22504305 -13.95694675 22.22504305 -12 19 C-11.34 19 -10.68 19 -10 19 C-9.731875 18.27941406 -9.46375 17.55882813 -9.1875 16.81640625 C-7.9998639 13.99967722 -6.60600761 11.53521731 -5 8.9375 C-3.19462309 6.00827597 -1.49037371 3.1025568 0 0 Z " fill="#101010" transform="translate(119,63)"/>
<path d="M0 0 C1.65 0 3.3 0 5 0 C1.82775243 6.58851418 -1.99383707 11.28293703 -7.1875 16.375 C-7.86514404 17.04619873 -8.54278809 17.71739746 -9.2409668 18.40893555 C-13.07488745 22.18390823 -16.96774045 25.8352414 -21.08203125 29.3046875 C-25.2527029 32.99118749 -29.10167339 37.02977802 -33 41 C-33 38 -33 38 -31.75 36.39355469 C-31.1725 35.82540039 -30.595 35.25724609 -30 34.671875 C-29.36384766 34.04023437 -28.72769531 33.40859375 -28.07226562 32.7578125 C-27.38841797 32.09523437 -26.70457031 31.43265625 -26 30.75 C-25.31099609 30.07195312 -24.62199219 29.39390625 -23.91210938 28.6953125 C-19.95315842 24.82234443 -15.92843583 21.06337685 -11.70703125 17.4765625 C-7.18621253 13.56610603 -2.53040024 9.5073417 0 4 C0 2.68 0 1.36 0 0 Z " fill="#86888A" transform="translate(109,47)"/>
<path d="M0 0 C1.3329946 3.99898379 -0.06491514 6.46529249 -1.4375 10.25 C-5.01263166 20.81365708 -4.79260382 31.02030163 -3 42 C-3.66 42 -4.32 42 -5 42 C-8.47864072 31.34666278 -7.83284707 19.74964289 -5 9 C-4.34 9 -3.68 9 -3 9 C-2.01 6.03 -1.02 3.06 0 0 Z " fill="#1F2021" transform="translate(75,115)"/>
<path d="M0 0 C3.9943544 2.16836382 6.83975819 4.75434625 10 8 C10.66 8.33 11.32 8.66 12 9 C12 7.35 12 5.7 12 4 C16 10 16 10 16 14 C11.92760702 13.47315196 9.78401363 12.36950851 6.75 9.625 C6.06421875 9.01914063 5.3784375 8.41328125 4.671875 7.7890625 C3 6 3 6 2 3 C1.34 2.67 0.68 2.34 0 2 C0 1.34 0 0.68 0 0 Z " fill="#171719" transform="translate(60,153)"/>
<path d="M0 0 C0.33 0 0.66 0 1 0 C1.25394531 1.02480469 1.50789063 2.04960937 1.76953125 3.10546875 C2.11676597 4.46625347 2.46444584 5.82692465 2.8125 7.1875 C2.97814453 7.86103516 3.14378906 8.53457031 3.31445312 9.22851562 C4.13174235 12.38972865 4.99975666 14.99959891 6.69921875 17.80078125 C7.12847656 18.52652344 7.55773437 19.25226563 8 20 C7.67 20.99 7.34 21.98 7 23 C-1.35128333 12.41645541 -1.35128333 12.41645541 -0.625 4.6875 C-0.42863758 3.1234505 -0.22419881 1.56030251 0 0 Z " fill="#A7A8AC" transform="translate(60,135)"/>
<path d="M0 0 C0.33 0 0.66 0 1 0 C1.33 6.6 1.66 13.2 2 20 C1.34 20 0.68 20 0 20 C-1.41404314 16.19975907 -2.34892324 13.07077118 -2 9 C-1.67 8.67 -1.34 8.34 -1 8 C-0.76924918 6.65252916 -0.58846937 5.29622435 -0.4375 3.9375 C-0.293125 2.638125 -0.14875 1.33875 0 0 Z " fill="#C7C8C9" transform="translate(58,122)"/>
<path d="M0 0 C0.98150241 2.94450722 1.1613058 4.93518979 1 8 C0.67 8.33 0.34 8.66 0 9 C-0.23287008 10.68183948 -0.41264166 12.3712416 -0.5625 14.0625 C-0.64628906 14.98160156 -0.73007813 15.90070313 -0.81640625 16.84765625 C-0.87699219 17.55792969 -0.93757813 18.26820313 -1 19 C0.65 18.67 2.3 18.34 4 18 C3.67 18.66 3.34 19.32 3 20 C1.35 20 -0.3 20 -2 20 C-2.05425226 17.60385874 -2.09379027 15.20896147 -2.125 12.8125 C-2.14175781 12.13896484 -2.15851563 11.46542969 -2.17578125 10.77148438 C-2.21538674 6.71192193 -1.80020002 3.65001185 0 0 Z " fill="#3D3E41" transform="translate(78,128)"/>
<path d="M0 0 C0.99 0.33 1.98 0.66 3 1 C4.1875 4.0625 4.1875 4.0625 5 7 C4.01 6.67 3.02 6.34 2 6 C2 9.63 2 13.26 2 17 C1.67 17 1.34 17 1 17 C0.67 11.39 0.34 5.78 0 0 Z " fill="#7E8081" transform="translate(101,9)"/>
<path d="M0 0 C0.33 0.66 0.66 1.32 1 2 C-0.11678083 3.6721852 -1.24366352 5.33762803 -2.375 7 C-3.00148438 7.928125 -3.62796875 8.85625 -4.2734375 9.8125 C-4.84320313 10.534375 -5.41296875 11.25625 -6 12 C-6.66 12 -7.32 12 -8 12 C-8 12.66 -8 13.32 -8 14 C-8.66 14 -9.32 14 -10 14 C-8.43632643 10.47761953 -6.30504111 7.72876006 -3.875 4.75 C-3.15054688 3.85796875 -2.42609375 2.9659375 -1.6796875 2.046875 C-0.84824219 1.03367187 -0.84824219 1.03367187 0 0 Z " fill="#1A1B1B" transform="translate(113,120)"/>
<path d="M0 0 C0.66 0 1.32 0 2 0 C2.33 2.64 2.66 5.28 3 8 C2.34 8 1.68 8 1 8 C1 8.66 1 9.32 1 10 C-0.8125 11.6875 -0.8125 11.6875 -3 13 C-3.99 12.67 -4.98 12.34 -6 12 C-5.01 11.319375 -4.02 10.63875 -3 9.9375 C-1.30044266 8.63344271 -1.30044266 8.63344271 0 7 C0.50196294 3.28926495 0.50196294 3.28926495 0 0 Z " fill="#2B2B2C" transform="translate(112,29)"/>
<path d="M0 0 C1.54286547 2.31429821 2.89992755 4.54571028 4.1875 7 C4.55230469 7.680625 4.91710937 8.36125 5.29296875 9.0625 C6 11 6 11 5 14 C0.17970402 9.17970402 0.17970402 9.17970402 -0.33203125 5.8203125 C-0.31474316 3.8771309 -0.16690325 1.93607771 0 0 Z " fill="#9A9DA1" transform="translate(62,144)"/>
<path d="M0 0 C0.66 0.33 1.32 0.66 2 1 C1 2.9375 1 2.9375 -1 5 C-3.69924572 5.66549451 -6.20631637 5.81680763 -9 6 C-7.73295613 3.46591226 -6.56876843 3.06790028 -4.0625 1.8125 C-3.35222656 1.44769531 -2.64195313 1.08289063 -1.91015625 0.70703125 C-1.27980469 0.47371094 -0.64945313 0.24039063 0 0 Z " fill="#333436" transform="translate(91,140)"/>
<path d="M0 0 C4 6 4 6 4 10 C2.35 9.67 0.7 9.34 -1 9 C-0.01 8.67 0.98 8.34 2 8 C1.34 7.01 0.68 6.02 0 5 C-0.125 2.3125 -0.125 2.3125 0 0 Z " fill="#090A09" transform="translate(72,157)"/>
<path d="M0 0 C0.99 0 1.98 0 3 0 C3.66 1.32 4.32 2.64 5 4 C5.66 4 6.32 4 7 4 C7.33 5.32 7.66 6.64 8 8 C6.66102417 7.04956626 5.32894573 6.08940853 4 5.125 C3.2575 4.59132812 2.515 4.05765625 1.75 3.5078125 C1.1725 3.01023438 0.595 2.51265625 0 2 C0 1.34 0 0.68 0 0 Z " fill="#6F7175" transform="translate(65,156)"/>
<path d="M0 0 C0.66 0.33 1.32 0.66 2 1 C0.29171079 3.10633718 -0.52148416 3.93801608 -3.26171875 4.29296875 C-4.06222656 4.25816406 -4.86273438 4.22335938 -5.6875 4.1875 C-6.49574219 4.16042969 -7.30398437 4.13335937 -8.13671875 4.10546875 C-8.75160156 4.07066406 -9.36648437 4.03585938 -10 4 C-9.67 3.01 -9.34 2.02 -9 1 C-9 1.66 -9 2.32 -9 3 C-4.39257135 1.78955868 -4.39257135 1.78955868 0 0 Z " fill="#5E5F5F" transform="translate(112,43)"/>
<path d="M0 0 C0.99 0.33 1.98 0.66 3 1 C1.86695008 4.39914975 0.87481525 5.05254451 -2 7 C-1.125 2.25 -1.125 2.25 0 0 Z " fill="#A7A7A6" transform="translate(118,68)"/>
<path d="M0 0 C1.65 0 3.3 0 5 0 C3.63016497 3.16115776 3.0109362 3.9927092 0 6 C0 4.02 0 2.04 0 0 Z " fill="#9A9D9E" transform="translate(109,47)"/>
</svg>
